<?xml version="1.0" encoding="utf-8"?>
<svg width="250" height="250" id="svg2397" version="1.0" xmlns="http://www.w3.org/2000/svg">
  <defs id="defs2399">
    <linearGradient gradientUnits="userSpaceOnUse" x1="125" y1="27.44" x2="125" y2="222.561" id="gradient-1" gradientTransform="matrix(-0.689352, -0.724426, 0.450965, -0.429133, 185.088179, 247.127029)">
      <stop offset="0" style="stop-color: rgb(244, 0, 0);"/>
      <stop offset="1" style="stop-color: rgb(107, 0, 0);"/>
    </linearGradient>
    <radialGradient gradientUnits="userSpaceOnUse" cx="125.57" cy="132.832" r="72.841" id="gradient-0" gradientTransform="matrix(-0.837234, 0.950084, -1.08907, -0.959711, 361.406968, 129.581543)">
      <stop offset="0" style="stop-color: rgb(255, 255, 255);"/>
      <stop offset="1" style="stop-color: rgb(171, 171, 171);"/>
    </radialGradient>
  </defs>
  <g id="layer1">
    <g id="g137">
      <ellipse id="path3252" style="fill:none;fill-opacity:1;stroke:#000000;stroke-width:4.88377094;stroke-linecap:round;stroke-linejoin:miter;stroke-miterlimit:4;stroke-dasharray:none;stroke-opacity:1" cx="125" cy="125.00004" rx="97.555405" ry="97.560532"/>
      <path d="m 125.00028,27.439564 c -26.925268,0 -48.777665,21.853615 -48.777656,48.780214 0,26.926612 21.852388,48.780222 48.777656,48.780222 26.92519,0 48.77765,21.85362 48.77765,48.78021 0,26.92662 -21.85247,48.78023 -48.77765,48.78023" style="fill:none;fill-opacity:1;stroke:#000000;stroke-width:4.88398457;stroke-linecap:round;stroke-linejoin:miter;stroke-miterlimit:4;stroke-dasharray:none;stroke-opacity:1" id="path3300"/>
    </g>
    <g id="g70">
      <ellipse ry="97.561" rx="97.555" cy="124.933" cx="125.054" style="fill-opacity: 1; stroke: rgb(0, 0, 0); stroke-width: 4.88377; stroke-linecap: round; stroke-linejoin: miter; stroke-miterlimit: 4; stroke-dasharray: none; stroke-opacity: 1; fill: url(#gradient-1);" id="ellipse-1"/>
      <path style="fill: url(#gradient-0);" d="M 102.21 30.565 C 51.528 77.963 85.789 124.37 122.636 125.003 C 184.468 126.065 184.661 197.274 146.379 218.24 C 86.009 232.373 38.408 188.578 28.538 141.073 C 19.532 97.727 48.387 46.542 102.21 30.565 Z">
        <title>White Flame</title>
      </path>
      <ellipse ry="97.560532" rx="97.555405" cy="125.00004" cx="125" style="fill-opacity: 1; stroke: rgb(0, 0, 0); stroke-width: 4.88377; stroke-linecap: round; stroke-linejoin: miter; stroke-miterlimit: 4; stroke-dasharray: none; stroke-opacity: 1; fill: none;" id="ellipse22"/>
      <path id="path24" style="fill:none;fill-opacity:1;stroke:#000000;stroke-width:4.88398457;stroke-linecap:round;stroke-linejoin:miter;stroke-miterlimit:4;stroke-dasharray:none;stroke-opacity:1" d="m 125.00028,27.439564 c -26.925268,0 -48.777665,21.853615 -48.777656,48.780214 0,26.926612 21.852388,48.780222 48.777656,48.780222 26.92519,0 48.77765,21.85362 48.77765,48.78021 0,26.92662 -21.85247,48.78023 -48.77765,48.78023"/>
      <path style="fill:#000000;fill-opacity:1;fill-rule:evenodd;stroke:#000000;stroke-width:0.97679704px;stroke-linecap:butt;stroke-linejoin:miter;stroke-opacity:1" d="M 77.661 85.934 C 87.682 49.334 103.49 43.638 132.976 38.27 C 120.976 46.837 100.453 56.849 105.903 89.502 C 111.613 66.884 129.454 48.593 151.964 46.617 C 140.519 55.427 124.72 64.256 129.342 95.298 C 134.135 71.64 150.272 59.985 168.432 57.025 C 157.654 66.241 146.44 79.405 148.15 101.248 C 149.325 91.902 164.276 71.542 183.738 71.278 C 172.617 78.72 161.174 90.087 161.284 110.057 C 167.865 95.326 183.023 87.241 195.313 88.214 C 188.601 91.774 171.004 102.048 169.4 119.123 C 176.821 110.431 188.223 103.148 201.152 105.639 C 194.116 108.518 182.132 114.359 177.223 128.428 C 184.875 122.254 195.33 120.011 203.197 122.971 C 196.805 124.778 186.195 128.096 183.139 136.866 C 190.303 133.301 197.064 134.361 201.324 138.427 C 195.028 139.228 189.614 141.451 186.455 146.63 C 191.967 146.592 197.453 148.65 199.373 152.978 C 194.526 152.02 189.193 152.565 185.187 156.861 C 190.971 158.403 194.804 160.69 195.863 164.408 C 192.258 163.214 187.592 165.957 185.009 168.605 C 187.494 169.72 192.16 171.422 192.657 174.671 C 189.744 174.531 185.349 175.274 183.113 178.417 C 184.864 179.458 190.138 178.93 191.883 182.82 C 186.017 182.278 182.467 187.088 182.467 187.088 C 182.467 187.088 178.662 191.496 181.694 193.859 C 163.835 214.711 147.082 219.133 147.082 219.133 L 154.502 212.921 L 162.261 204.903 L 169.502 192.488 L 173.899 178.78 L 173.899 165.072 L 168.985 152.398 L 160.192 139.983 L 148.295 130.672 L 135.622 126.275 L 120.88 124.982 L 105.362 120.844 L 92.689 112.567 C 92.689 112.567 76.434 90.416 77.661 85.934 Z" id="path26"/>
    </g>
  </g>
</svg>