<?xml version="1.0" encoding="utf-8"?>
<svg width="250" height="250" id="svg2397" version="1.0" xmlns="http://www.w3.org/2000/svg">
  <defs id="defs2399">
    <linearGradient gradientUnits="userSpaceOnUse" x1="125" y1="27.44" x2="125" y2="222.561" id="gradient-1" gradientTransform="matrix(-0.689352, -0.724426, 0.450965, -0.429133, 182.088181, 247.127029)">
      <stop offset="0" style="stop-color: rgb(244, 0, 0);"/>
      <stop offset="1" style="stop-color: rgb(107, 0, 0);"/>
    </linearGradient>
    <radialGradient gradientUnits="userSpaceOnUse" cx="123.829" cy="117.893" r="72.841" id="gradient-0" gradientTransform="matrix(-1.548131, 0.604833, -0.525833, -1.350537, 383.034872, 218.409298)">
      <stop offset="0" style="stop-color: rgb(255, 255, 255);"/>
      <stop offset="1" style="stop-color: rgb(171, 171, 171);"/>
    </radialGradient>
  </defs>
  <g id="layer1" style="" transform="matrix(0.988178, 0, 0, 1.003686, 0.312613, -0.10089)">
    <g id="g70">
      <ellipse ry="95.149" rx="95.5" cy="124.933" cx="122.054" style="fill-opacity: 1; stroke-width: 4.88377; stroke-linecap: round; stroke-linejoin: miter; stroke-miterlimit: 4; stroke-dasharray: none; stroke-opacity: 1; fill: url(#gradient-1);" id="ellipse-1"/>
      <path style="fill: rgb(0, 0, 0); fill-opacity: 1; fill-rule: evenodd; stroke-width: 0.976797px; stroke-linecap: butt; stroke-linejoin: miter; stroke-opacity: 1;" d="M 76.214 83.401 C 81.55 47.12 102.796 40.812 123.423 37.578 C 111.423 46.145 96.453 56.849 101.903 89.502 C 107.613 66.884 125.454 48.593 147.964 46.617 C 136.519 55.427 120.72 64.256 125.342 95.298 C 130.135 71.64 146.272 59.985 164.432 57.025 C 153.654 66.241 142.44 79.405 144.15 101.248 C 145.325 91.902 160.276 71.542 179.738 71.278 C 168.617 78.72 157.174 90.087 157.284 110.057 C 163.865 95.326 179.023 87.241 191.313 88.214 C 184.601 91.774 167.004 102.048 165.4 119.123 C 172.821 110.431 184.223 103.148 197.152 105.639 C 190.116 108.518 178.132 114.359 173.223 128.428 C 180.875 122.254 191.33 120.011 199.197 122.971 C 192.805 124.778 182.195 128.096 179.139 136.866 C 186.303 133.301 193.064 134.361 197.324 138.427 C 191.028 139.228 185.614 141.451 182.455 146.63 C 187.967 146.592 193.453 148.65 195.373 152.978 C 190.526 152.02 185.193 152.565 181.187 156.861 C 186.971 158.403 190.804 160.69 191.863 164.408 C 188.258 163.214 183.592 165.957 181.009 168.605 C 183.494 169.72 188.16 171.422 188.657 174.671 C 185.744 174.531 181.349 175.274 179.113 178.417 C 180.864 179.458 186.138 178.93 187.883 182.82 C 182.017 182.278 178.467 187.088 178.467 187.088 C 178.467 187.088 174.662 191.496 177.694 193.859 C 159.835 214.711 145.522 217.339 145.522 217.339 L 150.502 212.921 L 158.261 204.903 L 165.502 192.488 L 169.899 178.78 L 169.899 165.072 L 164.985 152.398 L 156.192 139.983 L 144.295 130.672 L 131.622 126.275 L 116.88 124.982 C 116.88 124.982 106.251 123.025 101.362 120.844 C 96.754 118.789 88.689 112.567 88.689 112.567 C 88.689 112.567 82.638 112.02 81.395 102.456 C 81.047 99.776 74.722 93.545 76.214 83.401 Z" id="path26"/>
      <path style="fill: url(#gradient-0);" d="M 102.527 31.749 C 44.496 66.236 85.789 124.37 122.636 125.003 C 184.468 126.065 184.189 196.354 145.907 217.32 C 85.537 231.453 35.988 190.6 27.778 140.761 C 19.381 89.788 51.349 42.479 102.527 31.749 Z">
        <title>White Flame</title>
      </path>
    </g>
  </g>
</svg>